<svg width="512" height="512" viewBox="0 0 512 512" fill="none" xmlns="http://www.w3.org/2000/svg">
<rect width="512" height="512" rx="160" fill="black" fill-opacity="0.9"/>
<path d="M351.87 402C279.678 402 234.868 362.151 234.868 290.423V223.477C234.868 151.749 279.678 111.901 351.87 111.901C423.234 111.901 463.894 151.749 463.894 217.101V219.492H409.957V215.507C409.957 182.831 390.871 158.922 351.87 158.922C312.87 158.922 289.635 183.628 289.635 222.68V291.22C289.635 330.272 312.87 354.979 351.87 354.979C390.871 354.979 409.957 331.069 409.957 298.393V291.22H463.894V296.799C463.894 362.151 423.234 402 351.87 402Z" fill="#9AE600" fill-opacity="0.9"/>
<path d="M153.467 401.998C124.75 401.998 105.605 383.394 105.605 354.643V236.255H51.6514V192.282H105.605V127.167H160.429V192.282H219.604V236.255H160.429V345.341C160.429 353.797 164.78 358.025 172.612 358.025H214.382V401.998H153.467Z" fill="#9AE600" fill-opacity="0.9"/>
</svg>
