<svg width="512" height="512" viewBox="0 0 512 512" fill="none" xmlns="http://www.w3.org/2000/svg">
<rect width="512" height="512" fill="#00DDCC"/>
<path d="M357.62 410.644C279.319 410.644 230.719 367.423 230.719 289.626V217.016C230.719 139.22 279.319 96 357.62 96C435.021 96 479.122 139.22 479.122 210.101V212.694H420.621V208.372C420.621 172.932 399.921 147 357.62 147C315.32 147 290.119 173.796 290.119 216.152V290.491C290.119 332.847 315.32 359.644 357.62 359.644C399.921 359.644 420.621 333.712 420.621 298.271V290.491H479.122V296.542C479.122 367.423 435.021 410.644 357.62 410.644Z" fill="#9810FA"/>
<path d="M142.43 410.642C111.283 410.642 90.5183 390.464 90.5183 359.28V230.875H32V183.182H90.5183V112.559H149.981V183.182H214.162V230.875H149.981V349.191C149.981 358.363 154.7 362.948 163.194 362.948H208.499V410.642H142.43Z" fill="#9810FA"/>
</svg>
